<?xml version="1.0" standalone="no"?>
<!DOCTYPE svg PUBLIC "-//W3C//DTD SVG 20010904//EN"
 "http://www.w3.org/TR/2001/REC-SVG-20010904/DTD/svg10.dtd">
<svg version="1.0" xmlns="http://www.w3.org/2000/svg"
 width="4167.000000pt" height="4167.000000pt" viewBox="0 0 4167.000000 4167.000000"
 preserveAspectRatio="xMidYMid meet">

<g transform="translate(0.000000,4167.000000) scale(0.100000,-0.100000)"
fill="#000000" stroke="none">
<path d="M11845 29820 c-2243 -2243 -3524 -3531 -3515 -3534 19 -6 7753 -707
7756 -703 5 5 -701 7756 -707 7761 -3 3 -1593 -1583 -3534 -3524z"/>
<path d="M26286 33329 c-6 -29 -706 -7742 -703 -7746 5 -4 7756 703 7761 708
3 3 -1583 1593 -3524 3534 -3115 3115 -3529 3526 -3534 3504z"/>
<path d="M18080 29905 l0 -1380 1380 -1380 1380 -1380 1380 1380 1380 1380 0
1380 0 1380 -1380 -1380 -1380 -1380 -1380 1380 -1380 1380 0 -1380z"/>
<path d="M16338 28163 l-3 -2828 -2827 -3 -2828 -2 0 -705 0 -705 3535 0 3535
0 0 3535 0 3535 -705 0 -705 0 -2 -2827z"/>
<path d="M23920 27455 l0 -3535 3535 0 3535 0 0 705 0 705 -2827 2 -2828 3 -3
2828 -2 2827 -705 0 -705 0 0 -3535z"/>
<path d="M18080 25435 l1 -1380 1378 -1381 1379 -1382 1381 1382 1381 1381 0
1380 0 1380 -1380 -1380 -1380 -1380 -1380 1380 -1380 1380 0 -1380z"/>
<path d="M11764 22210 l1381 -1380 -1380 -1380 -1380 -1380 1380 0 1380 0
1380 1380 1380 1380 -1380 1380 -1380 1380 -1381 0 -1380 0 1380 -1380z"/>
<path d="M16235 22210 l1380 -1380 -1380 -1380 -1380 -1380 1380 0 1380 1
1381 1378 1381 1379 -1381 1381 -1381 1381 -1380 0 -1380 0 1380 -1380z"/>
<path d="M22672 22210 l-1383 -1379 1383 -1380 1383 -1380 1380 -1 1380 0
-1380 1380 -1380 1380 1380 1380 1380 1380 -1380 0 -1380 -1 -1383 -1379z"/>
<path d="M27145 22210 l-1380 -1380 1380 -1380 1380 -1380 1382 0 1382 0
-1382 1380 -1382 1379 1381 1381 1380 1380 -1380 0 -1381 0 -1380 -1380z"/>
<path d="M19458 18996 l-1378 -1381 0 -1380 0 -1380 1380 1380 1380 1380 1380
-1380 1380 -1380 0 1379 0 1379 -1377 1381 c-758 760 -1380 1381 -1383 1382
-3 0 -625 -621 -1382 -1380z"/>
<path d="M10680 17045 l0 -705 2828 -2 2827 -3 3 -2827 2 -2828 705 0 705 0 0
3535 0 3535 -3535 0 -3535 0 0 -705z"/>
<path d="M23920 14215 l0 -3535 705 0 705 0 2 2828 3 2827 2828 3 2827 2 0
705 0 705 -3535 0 -3535 0 0 -3535z"/>
<path d="M12188 15736 c-2121 -194 -3859 -354 -3862 -357 -3 -3 1583 -1593
3524 -3534 3125 -3125 3529 -3526 3534 -3504 3 13 161 1739 351 3834 190 2096
348 3834 351 3863 6 50 5 52 -17 51 -13 -1 -1760 -160 -3881 -353z"/>
<path d="M25583 16049 c4 -24 162 -1765 352 -3869 191 -2104 350 -3833 353
-3843 6 -13 767 743 3536 3512 3116 3116 3527 3530 3505 3535 -13 3 -1743 161
-3844 351 -2101 190 -3840 348 -3864 352 l-44 6 6 -44z"/>
<path d="M19457 14522 l-1377 -1377 0 -1380 0 -1380 1380 1380 1380 1380 1380
-1380 1380 -1380 0 1380 0 1380 -1378 1378 c-757 757 -1379 1377 -1382 1377
-3 0 -625 -620 -1383 -1378z"/>
</g>
</svg>